<?xml version="1.0" encoding="UTF-8"?>
<svg width="700pt" height="700pt" version="1.1" viewBox="0 0 700 700" xmlns="http://www.w3.org/2000/svg" xmlns:xlink="http://www.w3.org/1999/xlink">
 <g color="white">
  <path fill="currentcolor" d="m590.16 196.26c-2.2305-2.2305-5.2578-3.4883-8.4219-3.4883h-30.219c-6.5742 0-11.898 5.3242-11.898 11.898v8.2539h-6.4219l-0.003906-8.2461c0-6.5742-5.3203-11.898-11.898-11.898h-40.297c-6.5781 0-11.898 5.3242-11.898 11.898v8.2539h-6.418l-0.003907-8.2539c0-5.9453-4.3633-10.879-10.074-11.762v-9.75l32.781-32.789c2.2305-2.2305 3.4766-5.2578 3.4766-8.4102v-36.277c0-6.5742-5.3203-11.898-11.898-11.898h-36.277c-6.5742 0-11.898 5.3242-11.898 11.898v6.2383l-12.48 0.003906v-6.2383c0-6.5742-5.3242-11.898-11.898-11.898l-47.406-0.003906v-26.602l84.449-9.3867c3.5547-0.39063 6.2344-3.3867 6.2344-6.957 0-3.5664-2.6836-6.5625-6.2344-6.957l-84.449-9.3789v-3.8125c0-3.8633-3.1289-7-7-7-3.8633 0-7 3.1367-7 7v10.023c0 0.015625-0.011719 0.035156-0.011719 0.050782v20.156c0 0.015624 0.011719 0.035156 0.011719 0.050781v32.809h-47.414c-6.5742 0-11.898 5.3242-11.898 11.898v6.2383h-12.473v-6.2383c0-6.5742-5.3242-11.898-11.898-11.898h-36.27c-6.5742 0-11.898 5.3242-11.898 11.898v36.277c0 3.1523 1.2539 6.1836 3.4844 8.4102l32.781 32.789v9.75c-5.707 0.87891-10.074 5.8125-10.074 11.762v8.2539h-6.4297l-0.003906-8.25c0-6.5742-5.3242-11.898-11.898-11.898h-40.305c-6.5742 0-11.898 5.3242-11.898 11.898v8.2539h-6.4219v-8.2539c0-6.5742-5.3242-11.898-11.898-11.898h-30.219c-6.5742 0-11.898 5.3242-11.898 11.898v43.578c0 3.1211 1.2266 6.1133 3.4102 8.3398l26.82 27.301v240.5c0 6.5742 0.25391 11.898 0.25391 11.898h159.57v-13.691h107.16v13.691h159.8s0.023438-5.3242 0.023438-11.898l-0.003906-240.86 27.211-30.66c1.9375-2.1797 2.9961-4.9844 2.9961-7.8945l0.011719-40.305c0.015624-3.1523-1.2305-6.1836-3.4609-8.418zm-340.91 15.418h16.117v34.242l-16.117 21.453-7 9.3203v68.316c-7.2969-2.4688-15.082-3.8789-23.207-3.8789-3.8633 0-7 3.1406-7 7l-0.003906 169.28-56.539-0.003906v-241.25l-30.23-30.766v-33.719h16.23v20.156h44.219l-0.003906-20.156h26.305v20.156h37.23zm238.73 20.148v-20.148h26.305v20.156h44.23v-20.156h16.219l-0.011719 30.648-30.219 34.043v241.03h-56.531l-0.011719-169.28c0-3.8594-3.1289-7-7-7-8.1133 0-15.902 1.4102-23.199 3.8789l-0.003906-59.008v-9.3672l-7-9-16.93-21.766 0.011719-34.184h16.918v20.156zm-261.94 285.57 0.003907-161.86c28.957 3.4727 51.477 28.18 51.477 58.062v103.8h-35.273zm76.551-386.57v-18.137h22.281v18.137h50.262v-18.137h22.277v18.137h50.281v-18.137h22.27v26.375l-36.27 36.277v17.504h-6.8477c-3.8594 0-7 3.1367-7 7l-0.011719 48.41c0 1.5586 0.52734 3.0703 1.4766 4.3008l12.383 15.922v10.516h-23.23c-3.8594 0-7 3.1367-7 7v13.156h-26.301v-13.16c0-3.8633-3.1289-7-7-7h-40.305c-3.8633 0-7 3.1367-7 7v13.148h-26.293l0.003906-13.148c0-3.8633-3.1367-7-7-7h-23.23v-11.039l11.637-15.488c0.83984-1.1211 1.4062-2.7891 1.4062-4.207v-48.41c0-3.8633-3.1367-7-7-7h-6.043v-17.504l-36.27-36.277v-26.375h22.27v18.137zm119.89 379.88v-97.105c0-29.883 22.52-54.59 51.465-58.066l0.015626 161.86h-51.5v-6.6914zm-139.93-204.56v7h54.293v-7l-0.003906-13.148h26.305v20.148h54.305v-20.148h26.305l-0.003906 58.52c-12.254 7.3711-22.125 18.223-28.273 31.215-11.625-24.543-36.562-41.609-65.48-41.609s-53.855 17.062-65.48 41.621c-6.1562-12.992-16.023-23.855-28.273-31.215v-58.531h26.305zm74.445 114.46v11.129c0 3.8711-3.1289 7-7 7-3.8633 0-7-3.1289-7-7v-11.129h-22.277v11.129c0 3.8711-3.1367 7-7 7-3.8633 0-7-3.1289-7-7v-11.129h-15.211v-7c0-2.375 0.18359-4.7031 0.46094-7h14.75v-32.199c4.0469-4.4648 8.7539-8.3008 14-11.34v43.539h22.277v-51.023c2.2969-0.27344 4.625-0.46094 7-0.46094s4.6992 0.18359 7 0.46094v51.023h22.281v-43.539c5.2461 3.0391 9.9531 6.8828 14 11.352v32.188h14.746c0.28125 2.2969 0.46094 4.625 0.46094 7v7h-15.203v11.129c0 3.8711-3.1406 7-7 7-3.8633 0-7-3.1289-7-7v-11.129z"/>
  <path fill="currentcolor" d="m188.79 265.14h20.156v42.707h-20.156z"/>
  <path fill="currentcolor" d="m491.05 265.14h20.156v42.707h-20.156z"/>
  <path fill="currentcolor" d="m370.15 204.68h20.148v42.711h-20.148z"/>
  <path fill="currentcolor" d="m309.69 204.68h20.156v42.711h-20.156z"/>
 </g>
</svg>
